solid OpenSCAD_Model
  facet normal 0 0 -1
    outer loop
      vertex -12 0 -1
      vertex -11.0866 4.5922 -1
      vertex -11.0866 -4.5922 -1
    endloop
  endfacet
  facet normal 0 0 -1
    outer loop
      vertex -11.0866 -4.5922 -1
      vertex -11.0866 4.5922 -1
      vertex -8.48528 8.48528 -1
    endloop
  endfacet
  facet normal 0 0 -1
    outer loop
      vertex -11.0866 -4.5922 -1
      vertex -8.48528 8.48528 -1
      vertex -4.5922 11.0866 -1
    endloop
  endfacet
  facet normal 0 0 -1
    outer loop
      vertex -11.0866 -4.5922 -1
      vertex -4.5922 11.0866 -1
      vertex 0 12 -1
    endloop
  endfacet
  facet normal 0 0 -1
    outer loop
      vertex -11.0866 -4.5922 -1
      vertex 0 12 -1
      vertex 4.5922 11.0866 -1
    endloop
  endfacet
  facet normal 0 0 -1
    outer loop
      vertex -0.956709 2.3097 -1
      vertex 4.5922 11.0866 -1
      vertex 8.48528 8.48528 -1
    endloop
  endfacet
  facet normal 0 0 -1
    outer loop
      vertex 1.76777 1.76777 -1
      vertex 8.48528 8.48528 -1
      vertex 11.0866 4.5922 -1
    endloop
  endfacet
  facet normal 0 0 -1
    outer loop
      vertex 2.5 0 -1
      vertex 11.0866 4.5922 -1
      vertex 12 0 -1
    endloop
  endfacet
  facet normal 0 0 -1
    outer loop
      vertex 0.956709 -2.3097 -1
      vertex 12 0 -1
      vertex 11.0866 -4.5922 -1
    endloop
  endfacet
  facet normal 0 0 -1
    outer loop
      vertex -11.0866 -4.5922 -1
      vertex 11.0866 -4.5922 -1
      vertex 8.48528 -8.48528 -1
    endloop
  endfacet
  facet normal 0 0 -1
    outer loop
      vertex -11.0866 -4.5922 -1
      vertex 8.48528 -8.48528 -1
      vertex 4.5922 -11.0866 -1
    endloop
  endfacet
  facet normal 0 0 -1
    outer loop
      vertex -11.0866 -4.5922 -1
      vertex 4.5922 -11.0866 -1
      vertex 0 -12 -1
    endloop
  endfacet
  facet normal 0 0 -1
    outer loop
      vertex -11.0866 -4.5922 -1
      vertex 0 -12 -1
      vertex -4.5922 -11.0866 -1
    endloop
  endfacet
  facet normal 0 0 -1
    outer loop
      vertex -11.0866 -4.5922 -1
      vertex -4.5922 -11.0866 -1
      vertex -8.48528 -8.48528 -1
    endloop
  endfacet
  facet normal 0 0 -1
    outer loop
      vertex -0.956709 2.3097 -1
      vertex 8.48528 8.48528 -1
      vertex 0 2.5 -1
    endloop
  endfacet
  facet normal 0 0 -1
    outer loop
      vertex 0 -2.5 -1
      vertex -11.0866 -4.5922 -1
      vertex -0.956709 -2.3097 -1
    endloop
  endfacet
  facet normal 0 0 -1
    outer loop
      vertex -11.0866 -4.5922 -1
      vertex -2.3097 -0.956709 -1
      vertex -1.76777 -1.76777 -1
    endloop
  endfacet
  facet normal 0 0 -1
    outer loop
      vertex -11.0866 -4.5922 -1
      vertex -1.76777 -1.76777 -1
      vertex -0.956709 -2.3097 -1
    endloop
  endfacet
  facet normal 0 0 -1
    outer loop
      vertex 1.76777 -1.76777 -1
      vertex 12 0 -1
      vertex 0.956709 -2.3097 -1
    endloop
  endfacet
  facet normal 0 0 -1
    outer loop
      vertex -11.0866 -4.5922 -1
      vertex 0 -2.5 -1
      vertex 11.0866 -4.5922 -1
    endloop
  endfacet
  facet normal 0 0 -1
    outer loop
      vertex 0 -2.5 -1
      vertex 0.956709 -2.3097 -1
      vertex 11.0866 -4.5922 -1
    endloop
  endfacet
  facet normal 0 0 -1
    outer loop
      vertex 2.3097 -0.956709 -1
      vertex 12 0 -1
      vertex 1.76777 -1.76777 -1
    endloop
  endfacet
  facet normal 0 0 -1
    outer loop
      vertex 2.5 0 -1
      vertex 12 0 -1
      vertex 2.3097 -0.956709 -1
    endloop
  endfacet
  facet normal 0 0 -1
    outer loop
      vertex 2.3097 0.956709 -1
      vertex 11.0866 4.5922 -1
      vertex 2.5 0 -1
    endloop
  endfacet
  facet normal 0 0 -1
    outer loop
      vertex 0.956709 2.3097 -1
      vertex 8.48528 8.48528 -1
      vertex 1.76777 1.76777 -1
    endloop
  endfacet
  facet normal 0 0 -1
    outer loop
      vertex 0 2.5 -1
      vertex 8.48528 8.48528 -1
      vertex 0.956709 2.3097 -1
    endloop
  endfacet
  facet normal 0 0 -1
    outer loop
      vertex -1.76777 1.76777 -1
      vertex 4.5922 11.0866 -1
      vertex -0.956709 2.3097 -1
    endloop
  endfacet
  facet normal 0 0 -1
    outer loop
      vertex -2.3097 0.956709 -1
      vertex -11.0866 -4.5922 -1
      vertex -1.76777 1.76777 -1
    endloop
  endfacet
  facet normal 0 0 -1
    outer loop
      vertex -11.0866 -4.5922 -1
      vertex 4.5922 11.0866 -1
      vertex -1.76777 1.76777 -1
    endloop
  endfacet
  facet normal 0 0 -1
    outer loop
      vertex -11.0866 -4.5922 -1
      vertex -2.3097 0.956709 -1
      vertex -2.5 0 -1
    endloop
  endfacet
  facet normal 0 0 -1
    outer loop
      vertex -2.3097 -0.956709 -1
      vertex -11.0866 -4.5922 -1
      vertex -2.5 0 -1
    endloop
  endfacet
  facet normal 0 0 -1
    outer loop
      vertex 1.76777 1.76777 -1
      vertex 11.0866 4.5922 -1
      vertex 2.3097 0.956709 -1
    endloop
  endfacet
  facet normal -0.980785 0.19509 0
    outer loop
      vertex -12 0 -1
      vertex -12 0 1
      vertex -11.0866 4.5922 -1
    endloop
  endfacet
  facet normal -0.980785 0.19509 0
    outer loop
      vertex -11.0866 4.5922 -1
      vertex -12 0 1
      vertex -11.0866 4.5922 1
    endloop
  endfacet
  facet normal -0.980785 -0.19509 0
    outer loop
      vertex -12 0 -1
      vertex -11.0866 -4.5922 -1
      vertex -12 0 1
    endloop
  endfacet
  facet normal -0.980785 -0.19509 0
    outer loop
      vertex -12 0 1
      vertex -11.0866 -4.5922 -1
      vertex -11.0866 -4.5922 1
    endloop
  endfacet
  facet normal -0.83147 -0.55557 0
    outer loop
      vertex -11.0866 -4.5922 -1
      vertex -8.48528 -8.48528 -1
      vertex -11.0866 -4.5922 1
    endloop
  endfacet
  facet normal -0.83147 -0.55557 0
    outer loop
      vertex -11.0866 -4.5922 1
      vertex -8.48528 -8.48528 -1
      vertex -8.48528 -8.48528 1
    endloop
  endfacet
  facet normal -0.55557 -0.83147 0
    outer loop
      vertex -8.48528 -8.48528 1
      vertex -8.48528 -8.48528 -1
      vertex -4.5922 -11.0866 -1
    endloop
  endfacet
  facet normal -0.55557 -0.83147 0
    outer loop
      vertex -4.5922 -11.0866 1
      vertex -8.48528 -8.48528 1
      vertex -4.5922 -11.0866 -1
    endloop
  endfacet
  facet normal -0.19509 -0.980785 0
    outer loop
      vertex -4.5922 -11.0866 1
      vertex -4.5922 -11.0866 -1
      vertex 0 -12 -1
    endloop
  endfacet
  facet normal -0.19509 -0.980785 0
    outer loop
      vertex 0 -12 1
      vertex -4.5922 -11.0866 1
      vertex 0 -12 -1
    endloop
  endfacet
  facet normal 0.19509 -0.980785 0
    outer loop
      vertex 0 -12 1
      vertex 0 -12 -1
      vertex 4.5922 -11.0866 -1
    endloop
  endfacet
  facet normal 0.19509 -0.980785 0
    outer loop
      vertex 4.5922 -11.0866 1
      vertex 0 -12 1
      vertex 4.5922 -11.0866 -1
    endloop
  endfacet
  facet normal 0.55557 -0.83147 0
    outer loop
      vertex 4.5922 -11.0866 1
      vertex 4.5922 -11.0866 -1
      vertex 8.48528 -8.48528 -1
    endloop
  endfacet
  facet normal 0.55557 -0.83147 0
    outer loop
      vertex 8.48528 -8.48528 1
      vertex 4.5922 -11.0866 1
      vertex 8.48528 -8.48528 -1
    endloop
  endfacet
  facet normal 0.83147 -0.55557 0
    outer loop
      vertex 8.48528 -8.48528 1
      vertex 8.48528 -8.48528 -1
      vertex 11.0866 -4.5922 -1
    endloop
  endfacet
  facet normal 0.83147 -0.55557 0
    outer loop
      vertex 11.0866 -4.5922 1
      vertex 8.48528 -8.48528 1
      vertex 11.0866 -4.5922 -1
    endloop
  endfacet
  facet normal 0.980785 -0.19509 0
    outer loop
      vertex 11.0866 -4.5922 1
      vertex 11.0866 -4.5922 -1
      vertex 12 0 -1
    endloop
  endfacet
  facet normal 0.980785 -0.19509 0
    outer loop
      vertex 12 0 1
      vertex 11.0866 -4.5922 1
      vertex 12 0 -1
    endloop
  endfacet
  facet normal 0.980785 0.19509 0
    outer loop
      vertex 12 0 -1
      vertex 11.0866 4.5922 -1
      vertex 11.0866 4.5922 1
    endloop
  endfacet
  facet normal 0.980785 0.19509 0
    outer loop
      vertex 12 0 1
      vertex 12 0 -1
      vertex 11.0866 4.5922 1
    endloop
  endfacet
  facet normal 0.83147 0.55557 0
    outer loop
      vertex 11.0866 4.5922 -1
      vertex 8.48528 8.48528 -1
      vertex 8.48528 8.48528 1
    endloop
  endfacet
  facet normal 0.83147 0.55557 0
    outer loop
      vertex 11.0866 4.5922 1
      vertex 11.0866 4.5922 -1
      vertex 8.48528 8.48528 1
    endloop
  endfacet
  facet normal 0.55557 0.83147 0
    outer loop
      vertex 4.5922 11.0866 -1
      vertex 4.5922 11.0866 1
      vertex 8.48528 8.48528 -1
    endloop
  endfacet
  facet normal 0.55557 0.83147 0
    outer loop
      vertex 8.48528 8.48528 -1
      vertex 4.5922 11.0866 1
      vertex 8.48528 8.48528 1
    endloop
  endfacet
  facet normal 0.19509 0.980785 0
    outer loop
      vertex 0 12 -1
      vertex 0 12 1
      vertex 4.5922 11.0866 -1
    endloop
  endfacet
  facet normal 0.19509 0.980785 0
    outer loop
      vertex 4.5922 11.0866 -1
      vertex 0 12 1
      vertex 4.5922 11.0866 1
    endloop
  endfacet
  facet normal -0.19509 0.980785 0
    outer loop
      vertex -4.5922 11.0866 -1
      vertex -4.5922 11.0866 1
      vertex 0 12 -1
    endloop
  endfacet
  facet normal -0.19509 0.980785 0
    outer loop
      vertex 0 12 -1
      vertex -4.5922 11.0866 1
      vertex 0 12 1
    endloop
  endfacet
  facet normal -0.55557 0.83147 0
    outer loop
      vertex -8.48528 8.48528 -1
      vertex -8.48528 8.48528 1
      vertex -4.5922 11.0866 -1
    endloop
  endfacet
  facet normal -0.55557 0.83147 0
    outer loop
      vertex -4.5922 11.0866 -1
      vertex -8.48528 8.48528 1
      vertex -4.5922 11.0866 1
    endloop
  endfacet
  facet normal -0.83147 0.55557 0
    outer loop
      vertex -11.0866 4.5922 -1
      vertex -11.0866 4.5922 1
      vertex -8.48528 8.48528 -1
    endloop
  endfacet
  facet normal -0.83147 0.55557 0
    outer loop
      vertex -8.48528 8.48528 -1
      vertex -11.0866 4.5922 1
      vertex -8.48528 8.48528 1
    endloop
  endfacet
  facet normal 0.980785 -0.19509 0
    outer loop
      vertex -2.3097 0.956709 -1
      vertex -2.3097 0.956709 0.975
      vertex -2.5 0 0.975
    endloop
  endfacet
  facet normal 0.980785 -0.19509 0
    outer loop
      vertex -2.5 0 -1
      vertex -2.3097 0.956709 -1
      vertex -2.5 0 0.975
    endloop
  endfacet
  facet normal 0.980785 0.19509 0
    outer loop
      vertex -2.5 0 0.975
      vertex -2.3097 -0.956709 0.975
      vertex -2.3097 -0.956709 -1
    endloop
  endfacet
  facet normal 0.980785 0.19509 0
    outer loop
      vertex -2.5 0 -1
      vertex -2.5 0 0.975
      vertex -2.3097 -0.956709 -1
    endloop
  endfacet
  facet normal 0.831469 -0.55557 0
    outer loop
      vertex -1.76777 1.76777 -1
      vertex -1.76777 1.76777 0.975
      vertex -2.3097 0.956709 0.975
    endloop
  endfacet
  facet normal 0.831469 -0.55557 0
    outer loop
      vertex -2.3097 0.956709 -1
      vertex -1.76777 1.76777 -1
      vertex -2.3097 0.956709 0.975
    endloop
  endfacet
  facet normal 0.55557 -0.831469 0
    outer loop
      vertex -0.956709 2.3097 -1
      vertex -0.956709 2.3097 0.975
      vertex -1.76777 1.76777 0.975
    endloop
  endfacet
  facet normal 0.55557 -0.831469 0
    outer loop
      vertex -1.76777 1.76777 -1
      vertex -0.956709 2.3097 -1
      vertex -1.76777 1.76777 0.975
    endloop
  endfacet
  facet normal 0.19509 -0.980785 0
    outer loop
      vertex 0 2.5 -1
      vertex 0 2.5 0.975
      vertex -0.956709 2.3097 0.975
    endloop
  endfacet
  facet normal 0.19509 -0.980785 0
    outer loop
      vertex -0.956709 2.3097 -1
      vertex 0 2.5 -1
      vertex -0.956709 2.3097 0.975
    endloop
  endfacet
  facet normal -0.19509 -0.980785 0
    outer loop
      vertex 0.956709 2.3097 -1
      vertex 0.956709 2.3097 0.975
      vertex 0 2.5 0.975
    endloop
  endfacet
  facet normal -0.19509 -0.980785 0
    outer loop
      vertex 0 2.5 -1
      vertex 0.956709 2.3097 -1
      vertex 0 2.5 0.975
    endloop
  endfacet
  facet normal -0.55557 -0.831469 0
    outer loop
      vertex 1.76777 1.76777 -1
      vertex 1.76777 1.76777 0.975
      vertex 0.956709 2.3097 0.975
    endloop
  endfacet
  facet normal -0.55557 -0.831469 0
    outer loop
      vertex 0.956709 2.3097 -1
      vertex 1.76777 1.76777 -1
      vertex 0.956709 2.3097 0.975
    endloop
  endfacet
  facet normal -0.831469 -0.55557 0
    outer loop
      vertex 2.3097 0.956709 0.975
      vertex 1.76777 1.76777 0.975
      vertex 2.3097 0.956709 -1
    endloop
  endfacet
  facet normal -0.831469 -0.55557 0
    outer loop
      vertex 2.3097 0.956709 -1
      vertex 1.76777 1.76777 0.975
      vertex 1.76777 1.76777 -1
    endloop
  endfacet
  facet normal -0.980785 -0.19509 0
    outer loop
      vertex 2.5 0 0.975
      vertex 2.3097 0.956709 0.975
      vertex 2.5 0 -1
    endloop
  endfacet
  facet normal -0.980785 -0.19509 0
    outer loop
      vertex 2.5 0 -1
      vertex 2.3097 0.956709 0.975
      vertex 2.3097 0.956709 -1
    endloop
  endfacet
  facet normal -0.980785 0.19509 0
    outer loop
      vertex 2.5 0 0.975
      vertex 2.5 0 -1
      vertex 2.3097 -0.956709 0.975
    endloop
  endfacet
  facet normal -0.980785 0.19509 0
    outer loop
      vertex 2.3097 -0.956709 0.975
      vertex 2.5 0 -1
      vertex 2.3097 -0.956709 -1
    endloop
  endfacet
  facet normal -0.831469 0.55557 0
    outer loop
      vertex 2.3097 -0.956709 0.975
      vertex 2.3097 -0.956709 -1
      vertex 1.76777 -1.76777 0.975
    endloop
  endfacet
  facet normal -0.831469 0.55557 0
    outer loop
      vertex 1.76777 -1.76777 0.975
      vertex 2.3097 -0.956709 -1
      vertex 1.76777 -1.76777 -1
    endloop
  endfacet
  facet normal -0.55557 0.831469 0
    outer loop
      vertex 1.76777 -1.76777 0.975
      vertex 1.76777 -1.76777 -1
      vertex 0.956709 -2.3097 0.975
    endloop
  endfacet
  facet normal -0.55557 0.831469 0
    outer loop
      vertex 0.956709 -2.3097 0.975
      vertex 1.76777 -1.76777 -1
      vertex 0.956709 -2.3097 -1
    endloop
  endfacet
  facet normal -0.19509 0.980785 0
    outer loop
      vertex 0.956709 -2.3097 0.975
      vertex 0.956709 -2.3097 -1
      vertex 0 -2.5 0.975
    endloop
  endfacet
  facet normal -0.19509 0.980785 0
    outer loop
      vertex 0 -2.5 0.975
      vertex 0.956709 -2.3097 -1
      vertex 0 -2.5 -1
    endloop
  endfacet
  facet normal 0.19509 0.980785 0
    outer loop
      vertex 0 -2.5 0.975
      vertex 0 -2.5 -1
      vertex -0.956709 -2.3097 0.975
    endloop
  endfacet
  facet normal 0.19509 0.980785 0
    outer loop
      vertex -0.956709 -2.3097 0.975
      vertex 0 -2.5 -1
      vertex -0.956709 -2.3097 -1
    endloop
  endfacet
  facet normal 0.55557 0.831469 0
    outer loop
      vertex -0.956709 -2.3097 0.975
      vertex -0.956709 -2.3097 -1
      vertex -1.76777 -1.76777 0.975
    endloop
  endfacet
  facet normal 0.55557 0.831469 0
    outer loop
      vertex -1.76777 -1.76777 0.975
      vertex -0.956709 -2.3097 -1
      vertex -1.76777 -1.76777 -1
    endloop
  endfacet
  facet normal 0.831469 0.55557 0
    outer loop
      vertex -2.3097 -0.956709 0.975
      vertex -1.76777 -1.76777 0.975
      vertex -1.76777 -1.76777 -1
    endloop
  endfacet
  facet normal 0.831469 0.55557 0
    outer loop
      vertex -2.3097 -0.956709 -1
      vertex -2.3097 -0.956709 0.975
      vertex -1.76777 -1.76777 -1
    endloop
  endfacet
  facet normal 0 0 1
    outer loop
      vertex -11.0866 4.5922 1
      vertex -12 0 1
      vertex -11.0866 -4.5922 1
    endloop
  endfacet
  facet normal 0 0 1
    outer loop
      vertex -4.5922 -11.0866 1
      vertex -11.0866 4.5922 1
      vertex -8.48528 -8.48528 1
    endloop
  endfacet
  facet normal 0 0 1
    outer loop
      vertex -8.48528 -8.48528 1
      vertex -11.0866 4.5922 1
      vertex -11.0866 -4.5922 1
    endloop
  endfacet
  facet normal 0 0 1
    outer loop
      vertex 0 -12 1
      vertex -11.0866 4.5922 1
      vertex -4.5922 -11.0866 1
    endloop
  endfacet
  facet normal 0 0 1
    outer loop
      vertex -5.54328 -2.2961 1
      vertex -11.0866 4.5922 1
      vertex 0 -12 1
    endloop
  endfacet
  facet normal 0 0 1
    outer loop
      vertex 6 0 1
      vertex 5.54328 -2.2961 1
      vertex 11.0866 -4.5922 1
    endloop
  endfacet
  facet normal 0 0 1
    outer loop
      vertex 4.5922 11.0866 1
      vertex -11.0866 4.5922 1
      vertex 8.48528 8.48528 1
    endloop
  endfacet
  facet normal 0 0 1
    outer loop
      vertex 0 12 1
      vertex -11.0866 4.5922 1
      vertex 4.5922 11.0866 1
    endloop
  endfacet
  facet normal 0 0 1
    outer loop
      vertex -4.5922 11.0866 1
      vertex -11.0866 4.5922 1
      vertex 0 12 1
    endloop
  endfacet
  facet normal 0 0 1
    outer loop
      vertex -8.48528 8.48528 1
      vertex -11.0866 4.5922 1
      vertex -4.5922 11.0866 1
    endloop
  endfacet
  facet normal 0 0 1
    outer loop
      vertex -4.24264 -4.24264 1
      vertex -5.54328 -2.2961 1
      vertex 0 -12 1
    endloop
  endfacet
  facet normal 0 0 1
    outer loop
      vertex -4.24264 4.24264 1
      vertex -2.2961 5.54328 1
      vertex -11.0866 4.5922 1
    endloop
  endfacet
  facet normal 0 0 1
    outer loop
      vertex 4.24264 -4.24264 1
      vertex 2.2961 -5.54328 1
      vertex 8.48528 -8.48528 1
    endloop
  endfacet
  facet normal 0 0 1
    outer loop
      vertex 5.54328 2.2961 1
      vertex 6 0 1
      vertex 12 0 1
    endloop
  endfacet
  facet normal 0 0 1
    outer loop
      vertex 8.48528 8.48528 1
      vertex -11.0866 4.5922 1
      vertex -2.2961 5.54328 1
    endloop
  endfacet
  facet normal 0 0 1
    outer loop
      vertex 8.48528 8.48528 1
      vertex 0 6 1
      vertex 11.0866 4.5922 1
    endloop
  endfacet
  facet normal 0 0 1
    outer loop
      vertex 8.48528 8.48528 1
      vertex -2.2961 5.54328 1
      vertex 0 6 1
    endloop
  endfacet
  facet normal 0 0 1
    outer loop
      vertex 0 6 1
      vertex 2.2961 5.54328 1
      vertex 11.0866 4.5922 1
    endloop
  endfacet
  facet normal 0 0 1
    outer loop
      vertex 11.0866 4.5922 1
      vertex 4.24264 4.24264 1
      vertex 12 0 1
    endloop
  endfacet
  facet normal 0 0 1
    outer loop
      vertex 4.24264 4.24264 1
      vertex 5.54328 2.2961 1
      vertex 12 0 1
    endloop
  endfacet
  facet normal 0 0 1
    outer loop
      vertex 12 0 1
      vertex 6 0 1
      vertex 11.0866 -4.5922 1
    endloop
  endfacet
  facet normal 0 0 1
    outer loop
      vertex 11.0866 -4.5922 1
      vertex 5.54328 -2.2961 1
      vertex 8.48528 -8.48528 1
    endloop
  endfacet
  facet normal 0 0 1
    outer loop
      vertex -5.54328 2.2961 1
      vertex -4.24264 4.24264 1
      vertex -11.0866 4.5922 1
    endloop
  endfacet
  facet normal 0 0 1
    outer loop
      vertex 5.54328 -2.2961 1
      vertex 4.24264 -4.24264 1
      vertex 8.48528 -8.48528 1
    endloop
  endfacet
  facet normal 0 0 1
    outer loop
      vertex 2.2961 5.54328 1
      vertex 4.24264 4.24264 1
      vertex 11.0866 4.5922 1
    endloop
  endfacet
  facet normal 0 0 1
    outer loop
      vertex 8.48528 -8.48528 1
      vertex 2.2961 -5.54328 1
      vertex 4.5922 -11.0866 1
    endloop
  endfacet
  facet normal 0 0 1
    outer loop
      vertex 2.2961 -5.54328 1
      vertex 0 -6 1
      vertex 4.5922 -11.0866 1
    endloop
  endfacet
  facet normal 0 0 1
    outer loop
      vertex 4.5922 -11.0866 1
      vertex -2.2961 -5.54328 1
      vertex 0 -12 1
    endloop
  endfacet
  facet normal 0 0 1
    outer loop
      vertex -2.2961 -5.54328 1
      vertex -4.24264 -4.24264 1
      vertex 0 -12 1
    endloop
  endfacet
  facet normal 0 0 1
    outer loop
      vertex -5.54328 -2.2961 1
      vertex -6 0 1
      vertex -11.0866 4.5922 1
    endloop
  endfacet
  facet normal 0 0 1
    outer loop
      vertex 0 -6 1
      vertex -2.2961 -5.54328 1
      vertex 4.5922 -11.0866 1
    endloop
  endfacet
  facet normal 0 0 1
    outer loop
      vertex -6 0 1
      vertex -5.54328 2.2961 1
      vertex -11.0866 4.5922 1
    endloop
  endfacet
  facet normal 0 0 1
    outer loop
      vertex -3.69552 -1.53073 0.975
      vertex -2.82843 -2.82843 0.975
      vertex -1.53073 -3.69552 0.975
    endloop
  endfacet
  facet normal 0 0 1
    outer loop
      vertex 1.53073 -3.69552 0.975
      vertex -3.69552 -1.53073 0.975
      vertex 0 -4 0.975
    endloop
  endfacet
  facet normal 0 0 1
    outer loop
      vertex 0 -4 0.975
      vertex -3.69552 -1.53073 0.975
      vertex -1.53073 -3.69552 0.975
    endloop
  endfacet
  facet normal 0 0 1
    outer loop
      vertex -0.956709 -2.3097 0.975
      vertex -3.69552 -1.53073 0.975
      vertex 1.53073 -3.69552 0.975
    endloop
  endfacet
  facet normal 0 0 1
    outer loop
      vertex 0.956709 -2.3097 0.975
      vertex 0 -2.5 0.975
      vertex 2.82843 -2.82843 0.975
    endloop
  endfacet
  facet normal 0 0 1
    outer loop
      vertex 2.3097 -0.956709 0.975
      vertex 1.76777 -1.76777 0.975
      vertex 3.69552 -1.53073 0.975
    endloop
  endfacet
  facet normal 0 0 1
    outer loop
      vertex -1.76777 1.76777 0.975
      vertex -0.956709 2.3097 0.975
      vertex 0 4 0.975
    endloop
  endfacet
  facet normal 0 0 1
    outer loop
      vertex 0 2.5 0.975
      vertex 0.956709 2.3097 0.975
      vertex 1.53073 3.69552 0.975
    endloop
  endfacet
  facet normal 0 0 1
    outer loop
      vertex -2.82843 2.82843 0.975
      vertex -3.69552 -1.53073 0.975
      vertex -1.53073 3.69552 0.975
    endloop
  endfacet
  facet normal 0 0 1
    outer loop
      vertex -3.69552 1.53073 0.975
      vertex -3.69552 -1.53073 0.975
      vertex -2.82843 2.82843 0.975
    endloop
  endfacet
  facet normal 0 0 1
    outer loop
      vertex -4 0 0.975
      vertex -3.69552 -1.53073 0.975
      vertex -3.69552 1.53073 0.975
    endloop
  endfacet
  facet normal 0 0 1
    outer loop
      vertex 0.956709 2.3097 0.975
      vertex 1.76777 1.76777 0.975
      vertex 2.82843 2.82843 0.975
    endloop
  endfacet
  facet normal 0 0 1
    outer loop
      vertex -0.956709 -2.3097 0.975
      vertex -1.76777 -1.76777 0.975
      vertex -3.69552 -1.53073 0.975
    endloop
  endfacet
  facet normal 0 0 1
    outer loop
      vertex -1.53073 3.69552 0.975
      vertex -3.69552 -1.53073 0.975
      vertex -2.3097 0.956709 0.975
    endloop
  endfacet
  facet normal 0 0 1
    outer loop
      vertex -1.53073 3.69552 0.975
      vertex -1.76777 1.76777 0.975
      vertex 0 4 0.975
    endloop
  endfacet
  facet normal 0 0 1
    outer loop
      vertex -1.53073 3.69552 0.975
      vertex -2.3097 0.956709 0.975
      vertex -1.76777 1.76777 0.975
    endloop
  endfacet
  facet normal 0 0 1
    outer loop
      vertex 0 4 0.975
      vertex -0.956709 2.3097 0.975
      vertex 1.53073 3.69552 0.975
    endloop
  endfacet
  facet normal 0 0 1
    outer loop
      vertex -0.956709 2.3097 0.975
      vertex 0 2.5 0.975
      vertex 1.53073 3.69552 0.975
    endloop
  endfacet
  facet normal 0 0 1
    outer loop
      vertex 1.53073 3.69552 0.975
      vertex 0.956709 2.3097 0.975
      vertex 2.82843 2.82843 0.975
    endloop
  endfacet
  facet normal 0 0 1
    outer loop
      vertex -2.5 0 0.975
      vertex -2.3097 0.956709 0.975
      vertex -3.69552 -1.53073 0.975
    endloop
  endfacet
  facet normal 0 0 1
    outer loop
      vertex 2.82843 2.82843 0.975
      vertex 1.76777 1.76777 0.975
      vertex 3.69552 1.53073 0.975
    endloop
  endfacet
  facet normal 0 0 1
    outer loop
      vertex -1.76777 -1.76777 0.975
      vertex -2.3097 -0.956709 0.975
      vertex -3.69552 -1.53073 0.975
    endloop
  endfacet
  facet normal 0 0 1
    outer loop
      vertex 1.76777 1.76777 0.975
      vertex 2.3097 0.956709 0.975
      vertex 3.69552 1.53073 0.975
    endloop
  endfacet
  facet normal 0 0 1
    outer loop
      vertex 3.69552 1.53073 0.975
      vertex 2.5 0 0.975
      vertex 4 0 0.975
    endloop
  endfacet
  facet normal 0 0 1
    outer loop
      vertex 4 0 0.975
      vertex 2.3097 -0.956709 0.975
      vertex 3.69552 -1.53073 0.975
    endloop
  endfacet
  facet normal 0 0 1
    outer loop
      vertex 3.69552 -1.53073 0.975
      vertex 1.76777 -1.76777 0.975
      vertex 2.82843 -2.82843 0.975
    endloop
  endfacet
  facet normal 0 0 1
    outer loop
      vertex 1.76777 -1.76777 0.975
      vertex 0.956709 -2.3097 0.975
      vertex 2.82843 -2.82843 0.975
    endloop
  endfacet
  facet normal 0 0 1
    outer loop
      vertex 2.82843 -2.82843 0.975
      vertex 0 -2.5 0.975
      vertex 1.53073 -3.69552 0.975
    endloop
  endfacet
  facet normal 0 0 1
    outer loop
      vertex 0 -2.5 0.975
      vertex -0.956709 -2.3097 0.975
      vertex 1.53073 -3.69552 0.975
    endloop
  endfacet
  facet normal 0 0 1
    outer loop
      vertex 2.3097 0.956709 0.975
      vertex 2.5 0 0.975
      vertex 3.69552 1.53073 0.975
    endloop
  endfacet
  facet normal 0 0 1
    outer loop
      vertex 2.5 0 0.975
      vertex 2.3097 -0.956709 0.975
      vertex 4 0 0.975
    endloop
  endfacet
  facet normal 0 0 1
    outer loop
      vertex -2.3097 -0.956709 0.975
      vertex -2.5 0 0.975
      vertex -3.69552 -1.53073 0.975
    endloop
  endfacet
  facet normal -0.980785 -0.19509 0
    outer loop
      vertex -6 0 1
      vertex -5.54328 -2.2961 1
      vertex -6 0 6
    endloop
  endfacet
  facet normal -0.980785 -0.19509 0
    outer loop
      vertex -6 0 6
      vertex -5.54328 -2.2961 1
      vertex -5.54328 -2.2961 6
    endloop
  endfacet
  facet normal -0.83147 -0.55557 0
    outer loop
      vertex -5.54328 -2.2961 1
      vertex -4.24264 -4.24264 1
      vertex -5.54328 -2.2961 6
    endloop
  endfacet
  facet normal -0.83147 -0.55557 0
    outer loop
      vertex -5.54328 -2.2961 6
      vertex -4.24264 -4.24264 1
      vertex -4.24264 -4.24264 6
    endloop
  endfacet
  facet normal -0.55557 -0.83147 0
    outer loop
      vertex -4.24264 -4.24264 6
      vertex -4.24264 -4.24264 1
      vertex -2.2961 -5.54328 1
    endloop
  endfacet
  facet normal -0.55557 -0.83147 0
    outer loop
      vertex -2.2961 -5.54328 6
      vertex -4.24264 -4.24264 6
      vertex -2.2961 -5.54328 1
    endloop
  endfacet
  facet normal -0.19509 -0.980785 0
    outer loop
      vertex -2.2961 -5.54328 6
      vertex -2.2961 -5.54328 1
      vertex 0 -6 1
    endloop
  endfacet
  facet normal -0.19509 -0.980785 0
    outer loop
      vertex 0 -6 6
      vertex -2.2961 -5.54328 6
      vertex 0 -6 1
    endloop
  endfacet
  facet normal 0.19509 -0.980785 0
    outer loop
      vertex 0 -6 6
      vertex 0 -6 1
      vertex 2.2961 -5.54328 1
    endloop
  endfacet
  facet normal 0.19509 -0.980785 0
    outer loop
      vertex 2.2961 -5.54328 6
      vertex 0 -6 6
      vertex 2.2961 -5.54328 1
    endloop
  endfacet
  facet normal 0.55557 -0.83147 0
    outer loop
      vertex 2.2961 -5.54328 6
      vertex 2.2961 -5.54328 1
      vertex 4.24264 -4.24264 1
    endloop
  endfacet
  facet normal 0.55557 -0.83147 0
    outer loop
      vertex 4.24264 -4.24264 6
      vertex 2.2961 -5.54328 6
      vertex 4.24264 -4.24264 1
    endloop
  endfacet
  facet normal 0.83147 -0.55557 0
    outer loop
      vertex 4.24264 -4.24264 6
      vertex 4.24264 -4.24264 1
      vertex 5.54328 -2.2961 1
    endloop
  endfacet
  facet normal 0.83147 -0.55557 0
    outer loop
      vertex 5.54328 -2.2961 6
      vertex 4.24264 -4.24264 6
      vertex 5.54328 -2.2961 1
    endloop
  endfacet
  facet normal 0.980785 -0.19509 0
    outer loop
      vertex 5.54328 -2.2961 6
      vertex 5.54328 -2.2961 1
      vertex 6 0 1
    endloop
  endfacet
  facet normal 0.980785 -0.19509 0
    outer loop
      vertex 6 0 6
      vertex 5.54328 -2.2961 6
      vertex 6 0 1
    endloop
  endfacet
  facet normal 0.980785 0.19509 0
    outer loop
      vertex 6 0 1
      vertex 5.54328 2.2961 1
      vertex 5.54328 2.2961 6
    endloop
  endfacet
  facet normal 0.980785 0.19509 0
    outer loop
      vertex 6 0 6
      vertex 6 0 1
      vertex 5.54328 2.2961 6
    endloop
  endfacet
  facet normal 0.83147 0.55557 0
    outer loop
      vertex 5.54328 2.2961 1
      vertex 4.24264 4.24264 1
      vertex 4.24264 4.24264 6
    endloop
  endfacet
  facet normal 0.83147 0.55557 0
    outer loop
      vertex 5.54328 2.2961 6
      vertex 5.54328 2.2961 1
      vertex 4.24264 4.24264 6
    endloop
  endfacet
  facet normal 0.55557 0.83147 0
    outer loop
      vertex 2.2961 5.54328 1
      vertex 2.2961 5.54328 6
      vertex 4.24264 4.24264 1
    endloop
  endfacet
  facet normal 0.55557 0.83147 0
    outer loop
      vertex 4.24264 4.24264 1
      vertex 2.2961 5.54328 6
      vertex 4.24264 4.24264 6
    endloop
  endfacet
  facet normal 0.19509 0.980785 0
    outer loop
      vertex 0 6 1
      vertex 0 6 6
      vertex 2.2961 5.54328 1
    endloop
  endfacet
  facet normal 0.19509 0.980785 0
    outer loop
      vertex 2.2961 5.54328 1
      vertex 0 6 6
      vertex 2.2961 5.54328 6
    endloop
  endfacet
  facet normal -0.19509 0.980785 0
    outer loop
      vertex -2.2961 5.54328 1
      vertex -2.2961 5.54328 6
      vertex 0 6 1
    endloop
  endfacet
  facet normal -0.19509 0.980785 0
    outer loop
      vertex 0 6 1
      vertex -2.2961 5.54328 6
      vertex 0 6 6
    endloop
  endfacet
  facet normal -0.55557 0.83147 0
    outer loop
      vertex -4.24264 4.24264 1
      vertex -4.24264 4.24264 6
      vertex -2.2961 5.54328 1
    endloop
  endfacet
  facet normal -0.55557 0.83147 0
    outer loop
      vertex -2.2961 5.54328 1
      vertex -4.24264 4.24264 6
      vertex -2.2961 5.54328 6
    endloop
  endfacet
  facet normal -0.83147 0.55557 0
    outer loop
      vertex -5.54328 2.2961 1
      vertex -5.54328 2.2961 6
      vertex -4.24264 4.24264 1
    endloop
  endfacet
  facet normal -0.83147 0.55557 0
    outer loop
      vertex -4.24264 4.24264 1
      vertex -5.54328 2.2961 6
      vertex -4.24264 4.24264 6
    endloop
  endfacet
  facet normal -0.980785 0.19509 0
    outer loop
      vertex -6 0 1
      vertex -6 0 6
      vertex -5.54328 2.2961 1
    endloop
  endfacet
  facet normal -0.980785 0.19509 0
    outer loop
      vertex -5.54328 2.2961 1
      vertex -6 0 6
      vertex -5.54328 2.2961 6
    endloop
  endfacet
  facet normal 0.83147 0.55557 0
    outer loop
      vertex -3.69552 -1.53073 6
      vertex -2.82843 -2.82843 6
      vertex -2.82843 -2.82843 0.975
    endloop
  endfacet
  facet normal 0.83147 0.55557 0
    outer loop
      vertex -3.69552 -1.53073 0.975
      vertex -3.69552 -1.53073 6
      vertex -2.82843 -2.82843 0.975
    endloop
  endfacet
  facet normal 0.980785 0.19509 0
    outer loop
      vertex -4 0 6
      vertex -3.69552 -1.53073 6
      vertex -3.69552 -1.53073 0.975
    endloop
  endfacet
  facet normal 0.980785 0.19509 0
    outer loop
      vertex -4 0 0.975
      vertex -4 0 6
      vertex -3.69552 -1.53073 0.975
    endloop
  endfacet
  facet normal 0.980785 -0.19509 0
    outer loop
      vertex -3.69552 1.53073 0.975
      vertex -3.69552 1.53073 6
      vertex -4 0 6
    endloop
  endfacet
  facet normal 0.980785 -0.19509 0
    outer loop
      vertex -4 0 0.975
      vertex -3.69552 1.53073 0.975
      vertex -4 0 6
    endloop
  endfacet
  facet normal 0.83147 -0.55557 0
    outer loop
      vertex -2.82843 2.82843 0.975
      vertex -2.82843 2.82843 6
      vertex -3.69552 1.53073 6
    endloop
  endfacet
  facet normal 0.83147 -0.55557 0
    outer loop
      vertex -3.69552 1.53073 0.975
      vertex -2.82843 2.82843 0.975
      vertex -3.69552 1.53073 6
    endloop
  endfacet
  facet normal 0.55557 -0.83147 0
    outer loop
      vertex -1.53073 3.69552 0.975
      vertex -1.53073 3.69552 6
      vertex -2.82843 2.82843 6
    endloop
  endfacet
  facet normal 0.55557 -0.83147 0
    outer loop
      vertex -2.82843 2.82843 0.975
      vertex -1.53073 3.69552 0.975
      vertex -2.82843 2.82843 6
    endloop
  endfacet
  facet normal 0.19509 -0.980785 0
    outer loop
      vertex 0 4 0.975
      vertex 0 4 6
      vertex -1.53073 3.69552 6
    endloop
  endfacet
  facet normal 0.19509 -0.980785 0
    outer loop
      vertex -1.53073 3.69552 0.975
      vertex 0 4 0.975
      vertex -1.53073 3.69552 6
    endloop
  endfacet
  facet normal -0.19509 -0.980785 0
    outer loop
      vertex 1.53073 3.69552 0.975
      vertex 1.53073 3.69552 6
      vertex 0 4 6
    endloop
  endfacet
  facet normal -0.19509 -0.980785 0
    outer loop
      vertex 0 4 0.975
      vertex 1.53073 3.69552 0.975
      vertex 0 4 6
    endloop
  endfacet
  facet normal -0.55557 -0.83147 0
    outer loop
      vertex 2.82843 2.82843 0.975
      vertex 2.82843 2.82843 6
      vertex 1.53073 3.69552 6
    endloop
  endfacet
  facet normal -0.55557 -0.83147 0
    outer loop
      vertex 1.53073 3.69552 0.975
      vertex 2.82843 2.82843 0.975
      vertex 1.53073 3.69552 6
    endloop
  endfacet
  facet normal -0.83147 -0.55557 0
    outer loop
      vertex 3.69552 1.53073 6
      vertex 2.82843 2.82843 6
      vertex 3.69552 1.53073 0.975
    endloop
  endfacet
  facet normal -0.83147 -0.55557 0
    outer loop
      vertex 3.69552 1.53073 0.975
      vertex 2.82843 2.82843 6
      vertex 2.82843 2.82843 0.975
    endloop
  endfacet
  facet normal -0.980785 -0.19509 0
    outer loop
      vertex 4 0 6
      vertex 3.69552 1.53073 6
      vertex 4 0 0.975
    endloop
  endfacet
  facet normal -0.980785 -0.19509 0
    outer loop
      vertex 4 0 0.975
      vertex 3.69552 1.53073 6
      vertex 3.69552 1.53073 0.975
    endloop
  endfacet
  facet normal -0.980785 0.19509 0
    outer loop
      vertex 4 0 6
      vertex 4 0 0.975
      vertex 3.69552 -1.53073 6
    endloop
  endfacet
  facet normal -0.980785 0.19509 0
    outer loop
      vertex 3.69552 -1.53073 6
      vertex 4 0 0.975
      vertex 3.69552 -1.53073 0.975
    endloop
  endfacet
  facet normal -0.83147 0.55557 0
    outer loop
      vertex 3.69552 -1.53073 6
      vertex 3.69552 -1.53073 0.975
      vertex 2.82843 -2.82843 6
    endloop
  endfacet
  facet normal -0.83147 0.55557 0
    outer loop
      vertex 2.82843 -2.82843 6
      vertex 3.69552 -1.53073 0.975
      vertex 2.82843 -2.82843 0.975
    endloop
  endfacet
  facet normal -0.55557 0.83147 0
    outer loop
      vertex 2.82843 -2.82843 6
      vertex 2.82843 -2.82843 0.975
      vertex 1.53073 -3.69552 6
    endloop
  endfacet
  facet normal -0.55557 0.83147 0
    outer loop
      vertex 1.53073 -3.69552 6
      vertex 2.82843 -2.82843 0.975
      vertex 1.53073 -3.69552 0.975
    endloop
  endfacet
  facet normal -0.19509 0.980785 0
    outer loop
      vertex 1.53073 -3.69552 6
      vertex 1.53073 -3.69552 0.975
      vertex 0 -4 6
    endloop
  endfacet
  facet normal -0.19509 0.980785 0
    outer loop
      vertex 0 -4 6
      vertex 1.53073 -3.69552 0.975
      vertex 0 -4 0.975
    endloop
  endfacet
  facet normal 0.19509 0.980785 0
    outer loop
      vertex 0 -4 6
      vertex 0 -4 0.975
      vertex -1.53073 -3.69552 6
    endloop
  endfacet
  facet normal 0.19509 0.980785 0
    outer loop
      vertex -1.53073 -3.69552 6
      vertex 0 -4 0.975
      vertex -1.53073 -3.69552 0.975
    endloop
  endfacet
  facet normal 0.55557 0.83147 0
    outer loop
      vertex -1.53073 -3.69552 6
      vertex -1.53073 -3.69552 0.975
      vertex -2.82843 -2.82843 6
    endloop
  endfacet
  facet normal 0.55557 0.83147 0
    outer loop
      vertex -2.82843 -2.82843 6
      vertex -1.53073 -3.69552 0.975
      vertex -2.82843 -2.82843 0.975
    endloop
  endfacet
  facet normal 0 0 1
    outer loop
      vertex -5.54328 2.2961 6
      vertex -6 0 6
      vertex -5.54328 -2.2961 6
    endloop
  endfacet
  facet normal 0 0 1
    outer loop
      vertex -2.2961 -5.54328 6
      vertex -5.54328 2.2961 6
      vertex -4.24264 -4.24264 6
    endloop
  endfacet
  facet normal 0 0 1
    outer loop
      vertex -4.24264 -4.24264 6
      vertex -5.54328 2.2961 6
      vertex -5.54328 -2.2961 6
    endloop
  endfacet
  facet normal 0 0 1
    outer loop
      vertex -3.69552 -1.53073 6
      vertex -5.54328 2.2961 6
      vertex -2.2961 -5.54328 6
    endloop
  endfacet
  facet normal 0 0 1
    outer loop
      vertex -3.69552 1.53073 6
      vertex -2.82843 2.82843 6
      vertex -5.54328 2.2961 6
    endloop
  endfacet
  facet normal 0 0 1
    outer loop
      vertex 0 4 6
      vertex 1.53073 3.69552 6
      vertex 4.24264 4.24264 6
    endloop
  endfacet
  facet normal 0 0 1
    outer loop
      vertex 2.82843 2.82843 6
      vertex 3.69552 1.53073 6
      vertex 5.54328 2.2961 6
    endloop
  endfacet
  facet normal 0 0 1
    outer loop
      vertex 0 6 6
      vertex -5.54328 2.2961 6
      vertex 2.2961 5.54328 6
    endloop
  endfacet
  facet normal 0 0 1
    outer loop
      vertex -2.2961 5.54328 6
      vertex -5.54328 2.2961 6
      vertex 0 6 6
    endloop
  endfacet
  facet normal 0 0 1
    outer loop
      vertex -4.24264 4.24264 6
      vertex -5.54328 2.2961 6
      vertex -2.2961 5.54328 6
    endloop
  endfacet
  facet normal 0 0 1
    outer loop
      vertex -2.82843 -2.82843 6
      vertex -3.69552 -1.53073 6
      vertex -2.2961 -5.54328 6
    endloop
  endfacet
  facet normal 0 0 1
    outer loop
      vertex 2.82843 -2.82843 6
      vertex 1.53073 -3.69552 6
      vertex 4.24264 -4.24264 6
    endloop
  endfacet
  facet normal 0 0 1
    outer loop
      vertex 3.69552 1.53073 6
      vertex 4 0 6
      vertex 6 0 6
    endloop
  endfacet
  facet normal 0 0 1
    outer loop
      vertex 2.2961 5.54328 6
      vertex -5.54328 2.2961 6
      vertex -1.53073 3.69552 6
    endloop
  endfacet
  facet normal 0 0 1
    outer loop
      vertex 2.2961 5.54328 6
      vertex 0 4 6
      vertex 4.24264 4.24264 6
    endloop
  endfacet
  facet normal 0 0 1
    outer loop
      vertex 2.2961 5.54328 6
      vertex -1.53073 3.69552 6
      vertex 0 4 6
    endloop
  endfacet
  facet normal 0 0 1
    outer loop
      vertex 4.24264 4.24264 6
      vertex 1.53073 3.69552 6
      vertex 5.54328 2.2961 6
    endloop
  endfacet
  facet normal 0 0 1
    outer loop
      vertex 1.53073 3.69552 6
      vertex 2.82843 2.82843 6
      vertex 5.54328 2.2961 6
    endloop
  endfacet
  facet normal 0 0 1
    outer loop
      vertex 5.54328 2.2961 6
      vertex 3.69552 1.53073 6
      vertex 6 0 6
    endloop
  endfacet
  facet normal 0 0 1
    outer loop
      vertex -2.82843 2.82843 6
      vertex -1.53073 3.69552 6
      vertex -5.54328 2.2961 6
    endloop
  endfacet
  facet normal 0 0 1
    outer loop
      vertex 6 0 6
      vertex 4 0 6
      vertex 5.54328 -2.2961 6
    endloop
  endfacet
  facet normal 0 0 1
    outer loop
      vertex 5.54328 -2.2961 6
      vertex 3.69552 -1.53073 6
      vertex 4.24264 -4.24264 6
    endloop
  endfacet
  facet normal 0 0 1
    outer loop
      vertex 1.53073 -3.69552 6
      vertex 0 -4 6
      vertex 2.2961 -5.54328 6
    endloop
  endfacet
  facet normal 0 0 1
    outer loop
      vertex 3.69552 -1.53073 6
      vertex 2.82843 -2.82843 6
      vertex 4.24264 -4.24264 6
    endloop
  endfacet
  facet normal 0 0 1
    outer loop
      vertex 4 0 6
      vertex 3.69552 -1.53073 6
      vertex 5.54328 -2.2961 6
    endloop
  endfacet
  facet normal 0 0 1
    outer loop
      vertex 4.24264 -4.24264 6
      vertex 1.53073 -3.69552 6
      vertex 2.2961 -5.54328 6
    endloop
  endfacet
  facet normal 0 0 1
    outer loop
      vertex 2.2961 -5.54328 6
      vertex 0 -4 6
      vertex 0 -6 6
    endloop
  endfacet
  facet normal 0 0 1
    outer loop
      vertex 0 -4 6
      vertex -1.53073 -3.69552 6
      vertex 0 -6 6
    endloop
  endfacet
  facet normal 0 0 1
    outer loop
      vertex 0 -6 6
      vertex -2.82843 -2.82843 6
      vertex -2.2961 -5.54328 6
    endloop
  endfacet
  facet normal 0 0 1
    outer loop
      vertex -3.69552 -1.53073 6
      vertex -4 0 6
      vertex -5.54328 2.2961 6
    endloop
  endfacet
  facet normal 0 0 1
    outer loop
      vertex -1.53073 -3.69552 6
      vertex -2.82843 -2.82843 6
      vertex 0 -6 6
    endloop
  endfacet
  facet normal 0 0 1
    outer loop
      vertex -4 0 6
      vertex -3.69552 1.53073 6
      vertex -5.54328 2.2961 6
    endloop
  endfacet
endsolid OpenSCAD_Model
