solid OpenSCAD_Model
  facet normal -0.991445 0.130526 0
    outer loop
      vertex -12.1035 0 -1
      vertex -12.1035 0 1
      vertex -11.6911 3.13263 -1
    endloop
  endfacet
  facet normal -0.991445 0.130526 0
    outer loop
      vertex -11.6911 3.13263 -1
      vertex -12.1035 0 1
      vertex -11.6911 3.13263 1
    endloop
  endfacet
  facet normal -0.991445 -0.130526 0
    outer loop
      vertex -12.1035 0 -1
      vertex -11.6911 -3.13263 -1
      vertex -12.1035 0 1
    endloop
  endfacet
  facet normal -0.991445 -0.130526 0
    outer loop
      vertex -12.1035 0 1
      vertex -11.6911 -3.13263 -1
      vertex -11.6911 -3.13263 1
    endloop
  endfacet
  facet normal 0 0 -1
    outer loop
      vertex -12.1035 0 -1
      vertex -11.6911 3.13263 -1
      vertex -11.6911 -3.13263 -1
    endloop
  endfacet
  facet normal 0 0 -1
    outer loop
      vertex -11.6911 -3.13263 -1
      vertex -11.6911 3.13263 -1
      vertex -10.482 6.05177 -1
    endloop
  endfacet
  facet normal 0 0 -1
    outer loop
      vertex -11.6911 -3.13263 -1
      vertex -10.482 6.05177 -1
      vertex -8.5585 8.5585 -1
    endloop
  endfacet
  facet normal 0 0 -1
    outer loop
      vertex -11.6911 -3.13263 -1
      vertex -8.5585 8.5585 -1
      vertex -6.05177 10.482 -1
    endloop
  endfacet
  facet normal 0 0 -1
    outer loop
      vertex -11.6911 -3.13263 -1
      vertex -6.05177 10.482 -1
      vertex -3.13263 11.6911 -1
    endloop
  endfacet
  facet normal 0 0 -1
    outer loop
      vertex -11.6911 -3.13263 -1
      vertex -3.13263 11.6911 -1
      vertex 0 12.1035 -1
    endloop
  endfacet
  facet normal 0 0 -1
    outer loop
      vertex -11.6911 -3.13263 -1
      vertex 0 12.1035 -1
      vertex 3.13263 11.6911 -1
    endloop
  endfacet
  facet normal 0 0 -1
    outer loop
      vertex -11.6911 -3.13263 -1
      vertex 3.13263 11.6911 -1
      vertex 6.05177 10.482 -1
    endloop
  endfacet
  facet normal 0 0 -1
    outer loop
      vertex -11.6911 -3.13263 -1
      vertex 6.05177 10.482 -1
      vertex 8.5585 8.5585 -1
    endloop
  endfacet
  facet normal 0 0 -1
    outer loop
      vertex 0 2.70598 -1
      vertex 8.5585 8.5585 -1
      vertex 10.482 6.05177 -1
    endloop
  endfacet
  facet normal 0 0 -1
    outer loop
      vertex 1.91342 1.91342 -1
      vertex 10.482 6.05177 -1
      vertex 11.6911 3.13263 -1
    endloop
  endfacet
  facet normal 0 0 -1
    outer loop
      vertex 2.70598 0 -1
      vertex 11.6911 3.13263 -1
      vertex 12.1035 0 -1
    endloop
  endfacet
  facet normal 0 0 -1
    outer loop
      vertex 1.91342 -1.91342 -1
      vertex 12.1035 0 -1
      vertex 11.6911 -3.13263 -1
    endloop
  endfacet
  facet normal 0 0 -1
    outer loop
      vertex -11.6911 -3.13263 -1
      vertex 11.6911 -3.13263 -1
      vertex 10.482 -6.05177 -1
    endloop
  endfacet
  facet normal 0 0 -1
    outer loop
      vertex -11.6911 -3.13263 -1
      vertex 10.482 -6.05177 -1
      vertex 8.5585 -8.5585 -1
    endloop
  endfacet
  facet normal 0 0 -1
    outer loop
      vertex -11.6911 -3.13263 -1
      vertex 8.5585 -8.5585 -1
      vertex 6.05177 -10.482 -1
    endloop
  endfacet
  facet normal 0 0 -1
    outer loop
      vertex -11.6911 -3.13263 -1
      vertex 6.05177 -10.482 -1
      vertex 3.13263 -11.6911 -1
    endloop
  endfacet
  facet normal 0 0 -1
    outer loop
      vertex -11.6911 -3.13263 -1
      vertex 3.13263 -11.6911 -1
      vertex 0 -12.1035 -1
    endloop
  endfacet
  facet normal 0 0 -1
    outer loop
      vertex -11.6911 -3.13263 -1
      vertex 0 -12.1035 -1
      vertex -3.13263 -11.6911 -1
    endloop
  endfacet
  facet normal 0 0 -1
    outer loop
      vertex -11.6911 -3.13263 -1
      vertex -3.13263 -11.6911 -1
      vertex -6.05177 -10.482 -1
    endloop
  endfacet
  facet normal 0 0 -1
    outer loop
      vertex -11.6911 -3.13263 -1
      vertex -6.05177 -10.482 -1
      vertex -8.5585 -8.5585 -1
    endloop
  endfacet
  facet normal 0 0 -1
    outer loop
      vertex -11.6911 -3.13263 -1
      vertex -8.5585 -8.5585 -1
      vertex -10.482 -6.05177 -1
    endloop
  endfacet
  facet normal 0 0 -1
    outer loop
      vertex -1.91342 -1.91342 -1
      vertex -11.6911 -3.13263 -1
      vertex -2.70598 0 -1
    endloop
  endfacet
  facet normal 0 0 -1
    outer loop
      vertex 1.91342 -1.91342 -1
      vertex 11.6911 -3.13263 -1
      vertex 0 -2.70598 -1
    endloop
  endfacet
  facet normal 0 0 -1
    outer loop
      vertex -11.6911 -3.13263 -1
      vertex -1.91342 -1.91342 -1
      vertex 0 -2.70598 -1
    endloop
  endfacet
  facet normal 0 0 -1
    outer loop
      vertex -11.6911 -3.13263 -1
      vertex 0 -2.70598 -1
      vertex 11.6911 -3.13263 -1
    endloop
  endfacet
  facet normal 0 0 -1
    outer loop
      vertex 2.70598 0 -1
      vertex 12.1035 0 -1
      vertex 1.91342 -1.91342 -1
    endloop
  endfacet
  facet normal 0 0 -1
    outer loop
      vertex 0 2.70598 -1
      vertex 10.482 6.05177 -1
      vertex 1.91342 1.91342 -1
    endloop
  endfacet
  facet normal 0 0 -1
    outer loop
      vertex -1.91342 1.91342 -1
      vertex 8.5585 8.5585 -1
      vertex 0 2.70598 -1
    endloop
  endfacet
  facet normal 0 0 -1
    outer loop
      vertex -11.6911 -3.13263 -1
      vertex 8.5585 8.5585 -1
      vertex -1.91342 1.91342 -1
    endloop
  endfacet
  facet normal 0 0 -1
    outer loop
      vertex 1.91342 1.91342 -1
      vertex 11.6911 3.13263 -1
      vertex 2.70598 0 -1
    endloop
  endfacet
  facet normal 0 0 -1
    outer loop
      vertex -2.70598 0 -1
      vertex -11.6911 -3.13263 -1
      vertex -1.91342 1.91342 -1
    endloop
  endfacet
  facet normal -0.92388 0.382683 0
    outer loop
      vertex -11.6911 3.13263 -1
      vertex -11.6911 3.13263 1
      vertex -10.482 6.05177 -1
    endloop
  endfacet
  facet normal -0.92388 0.382683 0
    outer loop
      vertex -10.482 6.05177 -1
      vertex -11.6911 3.13263 1
      vertex -10.482 6.05177 1
    endloop
  endfacet
  facet normal -0.591453 0.244988 0.768221
    outer loop
      vertex -10.482 6.05177 1
      vertex -11.6911 3.13263 1
      vertex -6.49435 0 6
    endloop
  endfacet
  facet normal -0.662869 0.0872685 0.743632
    outer loop
      vertex -11.6911 3.13263 1
      vertex -12.1035 0 1
      vertex -6.49435 0 6
    endloop
  endfacet
  facet normal -0.662869 -0.0872685 0.743632
    outer loop
      vertex -6.49435 0 6
      vertex -12.1035 0 1
      vertex -11.6911 -3.13263 1
    endloop
  endfacet
  facet normal -0.591453 -0.244988 0.768221
    outer loop
      vertex -6.49435 0 6
      vertex -11.6911 -3.13263 1
      vertex -10.482 -6.05177 1
    endloop
  endfacet
  facet normal -0.92388 -0.382683 0
    outer loop
      vertex -11.6911 -3.13263 -1
      vertex -10.482 -6.05177 -1
      vertex -11.6911 -3.13263 1
    endloop
  endfacet
  facet normal -0.92388 -0.382683 0
    outer loop
      vertex -11.6911 -3.13263 1
      vertex -10.482 -6.05177 -1
      vertex -10.482 -6.05177 1
    endloop
  endfacet
  facet normal -0.793353 -0.608761 0
    outer loop
      vertex -10.482 -6.05177 -1
      vertex -8.5585 -8.5585 -1
      vertex -10.482 -6.05177 1
    endloop
  endfacet
  facet normal -0.793353 -0.608761 0
    outer loop
      vertex -10.482 -6.05177 1
      vertex -8.5585 -8.5585 -1
      vertex -8.5585 -8.5585 1
    endloop
  endfacet
  facet normal -0.608761 -0.793353 0
    outer loop
      vertex -8.5585 -8.5585 1
      vertex -8.5585 -8.5585 -1
      vertex -6.05177 -10.482 -1
    endloop
  endfacet
  facet normal -0.608761 -0.793353 0
    outer loop
      vertex -6.05177 -10.482 1
      vertex -8.5585 -8.5585 1
      vertex -6.05177 -10.482 -1
    endloop
  endfacet
  facet normal -0.382683 -0.92388 0
    outer loop
      vertex -6.05177 -10.482 1
      vertex -6.05177 -10.482 -1
      vertex -3.13263 -11.6911 -1
    endloop
  endfacet
  facet normal -0.382683 -0.92388 0
    outer loop
      vertex -3.13263 -11.6911 1
      vertex -6.05177 -10.482 1
      vertex -3.13263 -11.6911 -1
    endloop
  endfacet
  facet normal -0.130526 -0.991445 0
    outer loop
      vertex -3.13263 -11.6911 1
      vertex -3.13263 -11.6911 -1
      vertex 0 -12.1035 -1
    endloop
  endfacet
  facet normal -0.130526 -0.991445 0
    outer loop
      vertex 0 -12.1035 1
      vertex -3.13263 -11.6911 1
      vertex 0 -12.1035 -1
    endloop
  endfacet
  facet normal 0.130526 -0.991445 0
    outer loop
      vertex 0 -12.1035 1
      vertex 0 -12.1035 -1
      vertex 3.13263 -11.6911 -1
    endloop
  endfacet
  facet normal 0.130526 -0.991445 0
    outer loop
      vertex 3.13263 -11.6911 1
      vertex 0 -12.1035 1
      vertex 3.13263 -11.6911 -1
    endloop
  endfacet
  facet normal 0.382683 -0.92388 0
    outer loop
      vertex 3.13263 -11.6911 1
      vertex 3.13263 -11.6911 -1
      vertex 6.05177 -10.482 -1
    endloop
  endfacet
  facet normal 0.382683 -0.92388 0
    outer loop
      vertex 6.05177 -10.482 1
      vertex 3.13263 -11.6911 1
      vertex 6.05177 -10.482 -1
    endloop
  endfacet
  facet normal 0.608761 -0.793353 0
    outer loop
      vertex 6.05177 -10.482 1
      vertex 6.05177 -10.482 -1
      vertex 8.5585 -8.5585 -1
    endloop
  endfacet
  facet normal 0.608761 -0.793353 0
    outer loop
      vertex 8.5585 -8.5585 1
      vertex 6.05177 -10.482 1
      vertex 8.5585 -8.5585 -1
    endloop
  endfacet
  facet normal 0.793353 -0.608761 0
    outer loop
      vertex 8.5585 -8.5585 1
      vertex 8.5585 -8.5585 -1
      vertex 10.482 -6.05177 -1
    endloop
  endfacet
  facet normal 0.793353 -0.608761 0
    outer loop
      vertex 10.482 -6.05177 1
      vertex 8.5585 -8.5585 1
      vertex 10.482 -6.05177 -1
    endloop
  endfacet
  facet normal 0.92388 -0.382683 0
    outer loop
      vertex 10.482 -6.05177 1
      vertex 10.482 -6.05177 -1
      vertex 11.6911 -3.13263 -1
    endloop
  endfacet
  facet normal 0.92388 -0.382683 0
    outer loop
      vertex 11.6911 -3.13263 1
      vertex 10.482 -6.05177 1
      vertex 11.6911 -3.13263 -1
    endloop
  endfacet
  facet normal 0.991445 -0.130526 0
    outer loop
      vertex 11.6911 -3.13263 1
      vertex 11.6911 -3.13263 -1
      vertex 12.1035 0 -1
    endloop
  endfacet
  facet normal 0.991445 -0.130526 0
    outer loop
      vertex 12.1035 0 1
      vertex 11.6911 -3.13263 1
      vertex 12.1035 0 -1
    endloop
  endfacet
  facet normal 0.991445 0.130526 0
    outer loop
      vertex 12.1035 0 -1
      vertex 11.6911 3.13263 -1
      vertex 11.6911 3.13263 1
    endloop
  endfacet
  facet normal 0.991445 0.130526 0
    outer loop
      vertex 12.1035 0 1
      vertex 12.1035 0 -1
      vertex 11.6911 3.13263 1
    endloop
  endfacet
  facet normal 0.92388 0.382683 0
    outer loop
      vertex 11.6911 3.13263 -1
      vertex 10.482 6.05177 -1
      vertex 10.482 6.05177 1
    endloop
  endfacet
  facet normal 0.92388 0.382683 0
    outer loop
      vertex 11.6911 3.13263 1
      vertex 11.6911 3.13263 -1
      vertex 10.482 6.05177 1
    endloop
  endfacet
  facet normal 0.793353 0.608761 0
    outer loop
      vertex 10.482 6.05177 -1
      vertex 8.5585 8.5585 -1
      vertex 8.5585 8.5585 1
    endloop
  endfacet
  facet normal 0.793353 0.608761 0
    outer loop
      vertex 10.482 6.05177 1
      vertex 10.482 6.05177 -1
      vertex 8.5585 8.5585 1
    endloop
  endfacet
  facet normal 0.608761 0.793353 0
    outer loop
      vertex 6.05177 10.482 -1
      vertex 6.05177 10.482 1
      vertex 8.5585 8.5585 -1
    endloop
  endfacet
  facet normal 0.608761 0.793353 0
    outer loop
      vertex 8.5585 8.5585 -1
      vertex 6.05177 10.482 1
      vertex 8.5585 8.5585 1
    endloop
  endfacet
  facet normal 0.382683 0.92388 0
    outer loop
      vertex 3.13263 11.6911 -1
      vertex 3.13263 11.6911 1
      vertex 6.05177 10.482 -1
    endloop
  endfacet
  facet normal 0.382683 0.92388 0
    outer loop
      vertex 6.05177 10.482 -1
      vertex 3.13263 11.6911 1
      vertex 6.05177 10.482 1
    endloop
  endfacet
  facet normal 0.130526 0.991445 0
    outer loop
      vertex 0 12.1035 -1
      vertex 0 12.1035 1
      vertex 3.13263 11.6911 -1
    endloop
  endfacet
  facet normal 0.130526 0.991445 0
    outer loop
      vertex 3.13263 11.6911 -1
      vertex 0 12.1035 1
      vertex 3.13263 11.6911 1
    endloop
  endfacet
  facet normal -0.130526 0.991445 0
    outer loop
      vertex -3.13263 11.6911 -1
      vertex -3.13263 11.6911 1
      vertex 0 12.1035 -1
    endloop
  endfacet
  facet normal -0.130526 0.991445 0
    outer loop
      vertex 0 12.1035 -1
      vertex -3.13263 11.6911 1
      vertex 0 12.1035 1
    endloop
  endfacet
  facet normal -0.382683 0.92388 0
    outer loop
      vertex -6.05177 10.482 -1
      vertex -6.05177 10.482 1
      vertex -3.13263 11.6911 -1
    endloop
  endfacet
  facet normal -0.382683 0.92388 0
    outer loop
      vertex -3.13263 11.6911 -1
      vertex -6.05177 10.482 1
      vertex -3.13263 11.6911 1
    endloop
  endfacet
  facet normal -0.608761 0.793353 0
    outer loop
      vertex -8.5585 8.5585 -1
      vertex -8.5585 8.5585 1
      vertex -6.05177 10.482 -1
    endloop
  endfacet
  facet normal -0.608761 0.793353 0
    outer loop
      vertex -6.05177 10.482 -1
      vertex -8.5585 8.5585 1
      vertex -6.05177 10.482 1
    endloop
  endfacet
  facet normal -0.793353 0.608761 0
    outer loop
      vertex -10.482 6.05177 -1
      vertex -10.482 6.05177 1
      vertex -8.5585 8.5585 -1
    endloop
  endfacet
  facet normal -0.793353 0.608761 0
    outer loop
      vertex -8.5585 8.5585 -1
      vertex -10.482 6.05177 1
      vertex -8.5585 8.5585 1
    endloop
  endfacet
  facet normal 0.923879 -0.382684 0
    outer loop
      vertex -1.91342 1.91342 -1
      vertex -1.91342 1.91342 0.975
      vertex -2.70598 0 0.975
    endloop
  endfacet
  facet normal 0.923879 -0.382684 0
    outer loop
      vertex -2.70598 0 -1
      vertex -1.91342 1.91342 -1
      vertex -2.70598 0 0.975
    endloop
  endfacet
  facet normal 0.923879 0.382684 0
    outer loop
      vertex -2.70598 0 0.975
      vertex -1.91342 -1.91342 0.975
      vertex -1.91342 -1.91342 -1
    endloop
  endfacet
  facet normal 0.923879 0.382684 0
    outer loop
      vertex -2.70598 0 -1
      vertex -2.70598 0 0.975
      vertex -1.91342 -1.91342 -1
    endloop
  endfacet
  facet normal 0.382684 -0.923879 0
    outer loop
      vertex 0 2.70598 -1
      vertex 0 2.70598 0.975
      vertex -1.91342 1.91342 0.975
    endloop
  endfacet
  facet normal 0.382684 -0.923879 0
    outer loop
      vertex -1.91342 1.91342 -1
      vertex 0 2.70598 -1
      vertex -1.91342 1.91342 0.975
    endloop
  endfacet
  facet normal -0.382684 -0.923879 0
    outer loop
      vertex 1.91342 1.91342 -1
      vertex 1.91342 1.91342 0.975
      vertex 0 2.70598 0.975
    endloop
  endfacet
  facet normal -0.382684 -0.923879 0
    outer loop
      vertex 0 2.70598 -1
      vertex 1.91342 1.91342 -1
      vertex 0 2.70598 0.975
    endloop
  endfacet
  facet normal -0.923879 -0.382684 0
    outer loop
      vertex 2.70598 0 0.975
      vertex 1.91342 1.91342 0.975
      vertex 2.70598 0 -1
    endloop
  endfacet
  facet normal -0.923879 -0.382684 0
    outer loop
      vertex 2.70598 0 -1
      vertex 1.91342 1.91342 0.975
      vertex 1.91342 1.91342 -1
    endloop
  endfacet
  facet normal -0.923879 0.382684 0
    outer loop
      vertex 2.70598 0 0.975
      vertex 2.70598 0 -1
      vertex 1.91342 -1.91342 0.975
    endloop
  endfacet
  facet normal -0.923879 0.382684 0
    outer loop
      vertex 1.91342 -1.91342 0.975
      vertex 2.70598 0 -1
      vertex 1.91342 -1.91342 -1
    endloop
  endfacet
  facet normal -0.382684 0.923879 0
    outer loop
      vertex 1.91342 -1.91342 0.975
      vertex 1.91342 -1.91342 -1
      vertex 0 -2.70598 0.975
    endloop
  endfacet
  facet normal -0.382684 0.923879 0
    outer loop
      vertex 0 -2.70598 0.975
      vertex 1.91342 -1.91342 -1
      vertex 0 -2.70598 -1
    endloop
  endfacet
  facet normal 0.382684 0.923879 0
    outer loop
      vertex 0 -2.70598 0.975
      vertex 0 -2.70598 -1
      vertex -1.91342 -1.91342 0.975
    endloop
  endfacet
  facet normal 0.382684 0.923879 0
    outer loop
      vertex -1.91342 -1.91342 0.975
      vertex 0 -2.70598 -1
      vertex -1.91342 -1.91342 -1
    endloop
  endfacet
  facet normal -0.530427 0.407011 0.743632
    outer loop
      vertex -8.5585 8.5585 1
      vertex -10.482 6.05177 1
      vertex -4.5922 4.5922 6
    endloop
  endfacet
  facet normal -0.591453 0.244988 0.768221
    outer loop
      vertex -4.5922 4.5922 6
      vertex -10.482 6.05177 1
      vertex -6.49435 0 6
    endloop
  endfacet
  facet normal 0 0 1
    outer loop
      vertex -4.5922 4.5922 6
      vertex -6.49435 0 6
      vertex -4.5922 -4.5922 6
    endloop
  endfacet
  facet normal 0 0 1
    outer loop
      vertex 4.5922 -4.5922 6
      vertex 3.06147 -3.06147 6
      vertex 0 -6.49435 6
    endloop
  endfacet
  facet normal 0 0 1
    outer loop
      vertex -4.32957 0 6
      vertex -4.5922 4.5922 6
      vertex -4.5922 -4.5922 6
    endloop
  endfacet
  facet normal 0 0 1
    outer loop
      vertex -4.32957 0 6
      vertex -3.06147 3.06147 6
      vertex -4.5922 4.5922 6
    endloop
  endfacet
  facet normal 0 0 1
    outer loop
      vertex 0 6.49435 6
      vertex -4.5922 4.5922 6
      vertex 4.5922 4.5922 6
    endloop
  endfacet
  facet normal 0 0 1
    outer loop
      vertex 0 -6.49435 6
      vertex -3.06147 -3.06147 6
      vertex -4.5922 -4.5922 6
    endloop
  endfacet
  facet normal 0 0 1
    outer loop
      vertex -3.06147 -3.06147 6
      vertex -4.32957 0 6
      vertex -4.5922 -4.5922 6
    endloop
  endfacet
  facet normal 0 0 1
    outer loop
      vertex -3.06147 3.06147 6
      vertex 0 4.32957 6
      vertex -4.5922 4.5922 6
    endloop
  endfacet
  facet normal 0 0 1
    outer loop
      vertex 3.06147 3.06147 6
      vertex 4.32957 0 6
      vertex 6.49435 0 6
    endloop
  endfacet
  facet normal 0 0 1
    outer loop
      vertex 4.5922 4.5922 6
      vertex -4.5922 4.5922 6
      vertex 0 4.32957 6
    endloop
  endfacet
  facet normal 0 0 1
    outer loop
      vertex 4.5922 4.5922 6
      vertex 3.06147 3.06147 6
      vertex 6.49435 0 6
    endloop
  endfacet
  facet normal 0 0 1
    outer loop
      vertex 4.5922 4.5922 6
      vertex 0 4.32957 6
      vertex 3.06147 3.06147 6
    endloop
  endfacet
  facet normal 0 0 1
    outer loop
      vertex 6.49435 0 6
      vertex 4.32957 0 6
      vertex 4.5922 -4.5922 6
    endloop
  endfacet
  facet normal 0 0 1
    outer loop
      vertex 4.32957 0 6
      vertex 3.06147 -3.06147 6
      vertex 4.5922 -4.5922 6
    endloop
  endfacet
  facet normal 0 0 1
    outer loop
      vertex 3.06147 -3.06147 6
      vertex 0 -4.32957 6
      vertex 0 -6.49435 6
    endloop
  endfacet
  facet normal 0 0 1
    outer loop
      vertex 0 -4.32957 6
      vertex -3.06147 -3.06147 6
      vertex 0 -6.49435 6
    endloop
  endfacet
  facet normal -0.591453 -0.244988 0.768221
    outer loop
      vertex -6.49435 0 6
      vertex -10.482 -6.05177 1
      vertex -4.5922 -4.5922 6
    endloop
  endfacet
  facet normal -0.530427 -0.407011 0.743632
    outer loop
      vertex -4.5922 -4.5922 6
      vertex -10.482 -6.05177 1
      vertex -8.5585 -8.5585 1
    endloop
  endfacet
  facet normal -0.407011 -0.530427 0.743632
    outer loop
      vertex -4.5922 -4.5922 6
      vertex -8.5585 -8.5585 1
      vertex -6.05177 -10.482 1
    endloop
  endfacet
  facet normal -0.244988 -0.591453 0.768221
    outer loop
      vertex 0 -6.49435 6
      vertex -6.05177 -10.482 1
      vertex -3.13263 -11.6911 1
    endloop
  endfacet
  facet normal -0.244988 -0.591453 0.768221
    outer loop
      vertex -4.5922 -4.5922 6
      vertex -6.05177 -10.482 1
      vertex 0 -6.49435 6
    endloop
  endfacet
  facet normal -0.0872685 -0.662869 0.743632
    outer loop
      vertex 0 -6.49435 6
      vertex -3.13263 -11.6911 1
      vertex 0 -12.1035 1
    endloop
  endfacet
  facet normal 0.0872685 -0.662869 0.743632
    outer loop
      vertex 0 -6.49435 6
      vertex 0 -12.1035 1
      vertex 3.13263 -11.6911 1
    endloop
  endfacet
  facet normal 0.244988 -0.591453 0.768221
    outer loop
      vertex 6.05177 -10.482 1
      vertex 0 -6.49435 6
      vertex 3.13263 -11.6911 1
    endloop
  endfacet
  facet normal 0.244988 -0.591453 0.768221
    outer loop
      vertex 4.5922 -4.5922 6
      vertex 0 -6.49435 6
      vertex 6.05177 -10.482 1
    endloop
  endfacet
  facet normal 0.407011 -0.530427 0.743632
    outer loop
      vertex 8.5585 -8.5585 1
      vertex 4.5922 -4.5922 6
      vertex 6.05177 -10.482 1
    endloop
  endfacet
  facet normal 0.530427 -0.407011 0.743632
    outer loop
      vertex 10.482 -6.05177 1
      vertex 4.5922 -4.5922 6
      vertex 8.5585 -8.5585 1
    endloop
  endfacet
  facet normal 0.591453 -0.244988 0.768221
    outer loop
      vertex 6.49435 0 6
      vertex 4.5922 -4.5922 6
      vertex 10.482 -6.05177 1
    endloop
  endfacet
  facet normal 0.591453 -0.244988 0.768221
    outer loop
      vertex 11.6911 -3.13263 1
      vertex 6.49435 0 6
      vertex 10.482 -6.05177 1
    endloop
  endfacet
  facet normal 0.662869 -0.0872685 0.743632
    outer loop
      vertex 12.1035 0 1
      vertex 6.49435 0 6
      vertex 11.6911 -3.13263 1
    endloop
  endfacet
  facet normal 0.662869 0.0872685 0.743632
    outer loop
      vertex 11.6911 3.13263 1
      vertex 6.49435 0 6
      vertex 12.1035 0 1
    endloop
  endfacet
  facet normal 0.591453 0.244988 0.768221
    outer loop
      vertex 10.482 6.05177 1
      vertex 6.49435 0 6
      vertex 11.6911 3.13263 1
    endloop
  endfacet
  facet normal 0.591453 0.244988 0.768221
    outer loop
      vertex 10.482 6.05177 1
      vertex 4.5922 4.5922 6
      vertex 6.49435 0 6
    endloop
  endfacet
  facet normal 0.530427 0.407011 0.743632
    outer loop
      vertex 8.5585 8.5585 1
      vertex 4.5922 4.5922 6
      vertex 10.482 6.05177 1
    endloop
  endfacet
  facet normal 0.407011 0.530427 0.743632
    outer loop
      vertex 6.05177 10.482 1
      vertex 4.5922 4.5922 6
      vertex 8.5585 8.5585 1
    endloop
  endfacet
  facet normal 0.244988 0.591453 0.768221
    outer loop
      vertex 3.13263 11.6911 1
      vertex 0 6.49435 6
      vertex 6.05177 10.482 1
    endloop
  endfacet
  facet normal 0.244988 0.591453 0.768221
    outer loop
      vertex 6.05177 10.482 1
      vertex 0 6.49435 6
      vertex 4.5922 4.5922 6
    endloop
  endfacet
  facet normal 0.0872685 0.662869 0.743632
    outer loop
      vertex 0 12.1035 1
      vertex 0 6.49435 6
      vertex 3.13263 11.6911 1
    endloop
  endfacet
  facet normal -0.0872685 0.662869 0.743632
    outer loop
      vertex 0 12.1035 1
      vertex -3.13263 11.6911 1
      vertex 0 6.49435 6
    endloop
  endfacet
  facet normal -0.244988 0.591453 0.768221
    outer loop
      vertex -3.13263 11.6911 1
      vertex -6.05177 10.482 1
      vertex 0 6.49435 6
    endloop
  endfacet
  facet normal -0.244988 0.591453 0.768221
    outer loop
      vertex 0 6.49435 6
      vertex -6.05177 10.482 1
      vertex -4.5922 4.5922 6
    endloop
  endfacet
  facet normal -0.407011 0.530427 0.743632
    outer loop
      vertex -6.05177 10.482 1
      vertex -8.5585 8.5585 1
      vertex -4.5922 4.5922 6
    endloop
  endfacet
  facet normal 0 0 1
    outer loop
      vertex -3.06147 -3.06147 0.975
      vertex 0 -4.32957 0.975
      vertex 3.06147 -3.06147 0.975
    endloop
  endfacet
  facet normal 0 0 1
    outer loop
      vertex 3.06147 3.06147 0.975
      vertex 1.91342 1.91342 0.975
      vertex 4.32957 0 0.975
    endloop
  endfacet
  facet normal 0 0 1
    outer loop
      vertex 0 -2.70598 0.975
      vertex -3.06147 -3.06147 0.975
      vertex 3.06147 -3.06147 0.975
    endloop
  endfacet
  facet normal 0 0 1
    outer loop
      vertex -4.32957 0 0.975
      vertex -3.06147 -3.06147 0.975
      vertex -3.06147 3.06147 0.975
    endloop
  endfacet
  facet normal 0 0 1
    outer loop
      vertex 2.70598 0 0.975
      vertex 1.91342 -1.91342 0.975
      vertex 4.32957 0 0.975
    endloop
  endfacet
  facet normal 0 0 1
    outer loop
      vertex -3.06147 3.06147 0.975
      vertex -3.06147 -3.06147 0.975
      vertex -2.70598 0 0.975
    endloop
  endfacet
  facet normal 0 0 1
    outer loop
      vertex -3.06147 3.06147 0.975
      vertex -1.91342 1.91342 0.975
      vertex 0 4.32957 0.975
    endloop
  endfacet
  facet normal 0 0 1
    outer loop
      vertex -3.06147 3.06147 0.975
      vertex -2.70598 0 0.975
      vertex -1.91342 1.91342 0.975
    endloop
  endfacet
  facet normal 0 0 1
    outer loop
      vertex 0 4.32957 0.975
      vertex 0 2.70598 0.975
      vertex 3.06147 3.06147 0.975
    endloop
  endfacet
  facet normal 0 0 1
    outer loop
      vertex -1.91342 1.91342 0.975
      vertex 0 2.70598 0.975
      vertex 0 4.32957 0.975
    endloop
  endfacet
  facet normal 0 0 1
    outer loop
      vertex 0 2.70598 0.975
      vertex 1.91342 1.91342 0.975
      vertex 3.06147 3.06147 0.975
    endloop
  endfacet
  facet normal 0 0 1
    outer loop
      vertex 1.91342 1.91342 0.975
      vertex 2.70598 0 0.975
      vertex 4.32957 0 0.975
    endloop
  endfacet
  facet normal 0 0 1
    outer loop
      vertex 4.32957 0 0.975
      vertex 1.91342 -1.91342 0.975
      vertex 3.06147 -3.06147 0.975
    endloop
  endfacet
  facet normal 0 0 1
    outer loop
      vertex 1.91342 -1.91342 0.975
      vertex 0 -2.70598 0.975
      vertex 3.06147 -3.06147 0.975
    endloop
  endfacet
  facet normal 0 0 1
    outer loop
      vertex 0 -2.70598 0.975
      vertex -1.91342 -1.91342 0.975
      vertex -3.06147 -3.06147 0.975
    endloop
  endfacet
  facet normal 0 0 1
    outer loop
      vertex -1.91342 -1.91342 0.975
      vertex -2.70598 0 0.975
      vertex -3.06147 -3.06147 0.975
    endloop
  endfacet
  facet normal 0.923879 0.382684 0
    outer loop
      vertex -4.32957 0 6
      vertex -3.06147 -3.06147 6
      vertex -3.06147 -3.06147 0.975
    endloop
  endfacet
  facet normal 0.923879 0.382684 0
    outer loop
      vertex -4.32957 0 0.975
      vertex -4.32957 0 6
      vertex -3.06147 -3.06147 0.975
    endloop
  endfacet
  facet normal 0.382684 0.923879 0
    outer loop
      vertex 0 -4.32957 6
      vertex 0 -4.32957 0.975
      vertex -3.06147 -3.06147 6
    endloop
  endfacet
  facet normal 0.382684 0.923879 0
    outer loop
      vertex -3.06147 -3.06147 6
      vertex 0 -4.32957 0.975
      vertex -3.06147 -3.06147 0.975
    endloop
  endfacet
  facet normal -0.382684 0.923879 0
    outer loop
      vertex 3.06147 -3.06147 6
      vertex 3.06147 -3.06147 0.975
      vertex 0 -4.32957 6
    endloop
  endfacet
  facet normal -0.382684 0.923879 0
    outer loop
      vertex 0 -4.32957 6
      vertex 3.06147 -3.06147 0.975
      vertex 0 -4.32957 0.975
    endloop
  endfacet
  facet normal -0.923879 0.382684 0
    outer loop
      vertex 4.32957 0 6
      vertex 4.32957 0 0.975
      vertex 3.06147 -3.06147 6
    endloop
  endfacet
  facet normal -0.923879 0.382684 0
    outer loop
      vertex 3.06147 -3.06147 6
      vertex 4.32957 0 0.975
      vertex 3.06147 -3.06147 0.975
    endloop
  endfacet
  facet normal -0.923879 -0.382684 0
    outer loop
      vertex 4.32957 0 6
      vertex 3.06147 3.06147 6
      vertex 4.32957 0 0.975
    endloop
  endfacet
  facet normal -0.923879 -0.382684 0
    outer loop
      vertex 4.32957 0 0.975
      vertex 3.06147 3.06147 6
      vertex 3.06147 3.06147 0.975
    endloop
  endfacet
  facet normal -0.382684 -0.923879 0
    outer loop
      vertex 3.06147 3.06147 0.975
      vertex 3.06147 3.06147 6
      vertex 0 4.32957 6
    endloop
  endfacet
  facet normal -0.382684 -0.923879 0
    outer loop
      vertex 0 4.32957 0.975
      vertex 3.06147 3.06147 0.975
      vertex 0 4.32957 6
    endloop
  endfacet
  facet normal 0.382684 -0.923879 0
    outer loop
      vertex 0 4.32957 0.975
      vertex 0 4.32957 6
      vertex -3.06147 3.06147 6
    endloop
  endfacet
  facet normal 0.382684 -0.923879 0
    outer loop
      vertex -3.06147 3.06147 0.975
      vertex 0 4.32957 0.975
      vertex -3.06147 3.06147 6
    endloop
  endfacet
  facet normal 0.923879 -0.382684 0
    outer loop
      vertex -3.06147 3.06147 0.975
      vertex -3.06147 3.06147 6
      vertex -4.32957 0 6
    endloop
  endfacet
  facet normal 0.923879 -0.382684 0
    outer loop
      vertex -4.32957 0 0.975
      vertex -3.06147 3.06147 0.975
      vertex -4.32957 0 6
    endloop
  endfacet
endsolid OpenSCAD_Model
